<svg width="3874" height="633" xmlns="http://www.w3.org/2000/svg" xmlns:xlink="http://www.w3.org/1999/xlink" xml:space="preserve" overflow="hidden"><defs><clipPath id="clip0"><rect x="361" y="1526" width="3874" height="633"/></clipPath></defs><g clip-path="url(#clip0)" transform="translate(-361 -1526)"><rect x="1187" y="1532" width="598" height="603" stroke="#000000" stroke-width="10.3125" stroke-linejoin="round" stroke-miterlimit="10" fill="#F2F2F2"/><text font-family="Cambria Math,Cambria Math_MSFontService,sans-serif" font-weight="400" font-size="83" transform="matrix(1 0 0 1 1300.78 1864)">Antares IR</text><rect x="2034" y="1541" width="1466" height="168" stroke="#000000" stroke-width="10.3125" stroke-linejoin="round" stroke-miterlimit="10" fill="#F2F2F2"/><text font-family="Cambria Math,Cambria Math_MSFontService,sans-serif" font-weight="400" font-size="83" transform="matrix(1 0 0 1 2448.54 1656)">AutoRT</text><text font-family="Cambria Math,Cambria Math_MSFontService,sans-serif" font-weight="400" font-size="83" transform="matrix(1 0 0 1 2731.08 1656)">Optimizer</text><rect x="2034" y="1761" width="529" height="168" stroke="#000000" stroke-width="10.3125" stroke-linejoin="round" stroke-miterlimit="10" fill="#F2F2F2"/><text font-family="Cambria Math,Cambria Math_MSFontService,sans-serif" font-weight="400" font-size="83" transform="matrix(1 0 0 1 2140.14 1876)">Triton IR</text><rect x="2034" y="1968" width="529" height="169" stroke="#000000" stroke-width="10.3125" stroke-linejoin="round" stroke-miterlimit="10" fill="#F2F2F2"/><text font-family="Cambria Math,Cambria Math_MSFontService,sans-serif" font-weight="400" font-size="83" transform="matrix(1 0 0 1 2167.29 2083)">TVM IR</text><rect x="2791" y="1761" width="709" height="168" stroke="#000000" stroke-width="10.3125" stroke-linejoin="round" stroke-miterlimit="10" fill="#F2F2F2"/><text font-family="Cambria Math,Cambria Math_MSFontService,sans-serif" font-weight="400" font-size="83" transform="matrix(1 0 0 1 2849.51 1876)">Triton Optimizer</text><rect x="2791" y="1968" width="709" height="169" stroke="#000000" stroke-width="10.3125" stroke-linejoin="round" stroke-miterlimit="10" fill="#F2F2F2"/><text font-family="Cambria Math,Cambria Math_MSFontService,sans-serif" font-weight="400" font-size="83" transform="matrix(1 0 0 1 2876.66 2083)">TVM Optimizer</text><rect x="3762" y="1541" width="468" height="603" stroke="#000000" stroke-width="10.3125" stroke-linejoin="round" stroke-miterlimit="10" fill="#F2F2F2"/><text font-family="Cambria Math,Cambria Math_MSFontService,sans-serif" font-weight="400" font-size="83" transform="matrix(1 0 0 1 3838.98 1774)">Different </text><text font-family="Cambria Math,Cambria Math_MSFontService,sans-serif" font-weight="400" font-size="83" transform="matrix(1 0 0 1 3845.74 1873)">Backend </text><text font-family="Cambria Math,Cambria Math_MSFontService,sans-serif" font-weight="400" font-size="83" transform="matrix(1 0 0 1 3860.91 1972)">Devices</text><rect x="371" y="1532" width="598" height="603" stroke="#000000" stroke-width="10.3125" stroke-linejoin="round" stroke-miterlimit="10" fill="#F2F2F2"/><text font-family="Cambria Math,Cambria Math_MSFontService,sans-serif" font-weight="400" font-size="83" transform="matrix(1 0 0 1 411.08 1815)">Custom/Fused</text><text font-family="Cambria Math,Cambria Math_MSFontService,sans-serif" font-weight="400" font-size="83" transform="matrix(1 0 0 1 475.544 1914)">Operations</text><path d="M1006 1773.5 1085 1773.5 1085 1711 1164 1836 1085 1961 1085 1898.5 1006 1898.5Z" fill-rule="evenodd"/><path d="M1834 1575.5 1913 1575.5 1913 1526 1992 1625 1913 1724 1913 1674.5 1834 1674.5Z" fill-rule="evenodd"/><path d="M1834 1783.5 1913 1783.5 1913 1734 1992 1833 1913 1932 1913 1882.5 1834 1882.5Z" fill-rule="evenodd"/><path d="M1834 1991.25 1913 1991.25 1913 1942 1992 2040.5 1913 2139 1913 2089.75 1834 2089.75Z" fill-rule="evenodd"/><path d="M2603 1797.5 2682.5 1797.5 2682.5 1748 2762 1847 2682.5 1946 2682.5 1896.5 2603 1896.5Z" fill-rule="evenodd"/><path d="M2603 2005.25 2682.5 2005.25 2682.5 1956 2762 2054.5 2682.5 2153 2682.5 2103.75 2603 2103.75Z" fill-rule="evenodd"/><path d="M3563 1575.5 3642 1575.5 3642 1526 3721 1625 3642 1724 3642 1674.5 3563 1674.5Z" fill-rule="evenodd"/><path d="M3563 1793.5 3642 1793.5 3642 1744 3721 1843 3642 1942 3642 1892.5 3563 1892.5Z" fill-rule="evenodd"/><path d="M3563 2010.5 3642 2010.5 3642 1961 3721 2060 3642 2159 3642 2109.5 3563 2109.5Z" fill-rule="evenodd"/></g></svg>