<svg width="1280" height="720" xmlns="http://www.w3.org/2000/svg" xmlns:xlink="http://www.w3.org/1999/xlink" overflow="hidden"><defs><clipPath id="clip0"><rect x="0" y="0" width="1280" height="720"/></clipPath><linearGradient x1="844" y1="370.5" x2="844" y2="405.5" gradientUnits="userSpaceOnUse" spreadMethod="reflect" id="fill1"><stop offset="0" stop-color="#FFDD9C"/><stop offset="0.5" stop-color="#FFD78E"/><stop offset="1" stop-color="#FFD479"/></linearGradient><linearGradient x1="974.5" y1="370.5" x2="974.5" y2="405.5" gradientUnits="userSpaceOnUse" spreadMethod="reflect" id="fill2"><stop offset="0" stop-color="#FFDD9C"/><stop offset="0.5" stop-color="#FFD78E"/><stop offset="1" stop-color="#FFD479"/></linearGradient><linearGradient x1="974.5" y1="430.5" x2="974.5" y2="466.5" gradientUnits="userSpaceOnUse" spreadMethod="reflect" id="fill3"><stop offset="0" stop-color="#FFDD9C"/><stop offset="0.5" stop-color="#FFD78E"/><stop offset="1" stop-color="#FFD479"/></linearGradient><linearGradient x1="277.5" y1="370.5" x2="277.5" y2="405.5" gradientUnits="userSpaceOnUse" spreadMethod="reflect" id="fill4"><stop offset="0" stop-color="#FFDD9C"/><stop offset="0.5" stop-color="#FFD78E"/><stop offset="1" stop-color="#FFD479"/></linearGradient><linearGradient x1="404.5" y1="370.5" x2="404.5" y2="405.5" gradientUnits="userSpaceOnUse" spreadMethod="reflect" id="fill5"><stop offset="0" stop-color="#FFDD9C"/><stop offset="0.5" stop-color="#FFD78E"/><stop offset="1" stop-color="#FFD479"/></linearGradient><linearGradient x1="533.5" y1="370.5" x2="533.5" y2="405.5" gradientUnits="userSpaceOnUse" spreadMethod="reflect" id="fill6"><stop offset="0" stop-color="#FFDD9C"/><stop offset="0.5" stop-color="#FFD78E"/><stop offset="1" stop-color="#FFD479"/></linearGradient><linearGradient x1="664.5" y1="429.5" x2="664.5" y2="464.5" gradientUnits="userSpaceOnUse" spreadMethod="reflect" id="fill7"><stop offset="0" stop-color="#FFDD9C"/><stop offset="0.5" stop-color="#FFD78E"/><stop offset="1" stop-color="#FFD479"/></linearGradient><linearGradient x1="663.5" y1="370.5" x2="663.5" y2="405.5" gradientUnits="userSpaceOnUse" spreadMethod="reflect" id="fill8"><stop offset="0" stop-color="#FFDD9C"/><stop offset="0.5" stop-color="#FFD78E"/><stop offset="1" stop-color="#FFD479"/></linearGradient><linearGradient x1="277.5" y1="430.5" x2="277.5" y2="466.5" gradientUnits="userSpaceOnUse" spreadMethod="reflect" id="fill9"><stop offset="0" stop-color="#FFDD9C"/><stop offset="0.5" stop-color="#FFD78E"/><stop offset="1" stop-color="#FFD479"/></linearGradient><linearGradient x1="405.5" y1="430.5" x2="405.5" y2="466.5" gradientUnits="userSpaceOnUse" spreadMethod="reflect" id="fill10"><stop offset="0" stop-color="#FFDD9C"/><stop offset="0.5" stop-color="#FFD78E"/><stop offset="1" stop-color="#FFD479"/></linearGradient><linearGradient x1="533" y1="430.5" x2="533" y2="466.5" gradientUnits="userSpaceOnUse" spreadMethod="reflect" id="fill11"><stop offset="0" stop-color="#FFDD9C"/><stop offset="0.5" stop-color="#FFD78E"/><stop offset="1" stop-color="#FFD479"/></linearGradient><linearGradient x1="844.5" y1="429.5" x2="844.5" y2="464.5" gradientUnits="userSpaceOnUse" spreadMethod="reflect" id="fill12"><stop offset="0" stop-color="#FFDD9C"/><stop offset="0.5" stop-color="#FFD78E"/><stop offset="1" stop-color="#FFD479"/></linearGradient></defs><g clip-path="url(#clip0)"><rect x="0" y="0" width="1280" height="720" fill="#FFFFFF"/><path d="M677 75.5C677 71.3579 680.358 68 684.5 68L946.5 68C950.642 68 954 71.3579 954 75.5L954 105.5C954 109.642 950.642 113 946.5 113L684.5 113C680.358 113 677 109.642 677 105.5Z" fill="#70AD47" fill-rule="evenodd"/><text fill="#FFFFFF" font-family="Corbel,Corbel_MSFontService,sans-serif" font-style="italic" font-weight="400" font-size="19" transform="translate(735.429 97)">Antares IR (Frontend)</text><path d="M678 154.667C678 150.433 681.433 147 685.667 147L947.333 147C951.567 147 955 150.433 955 154.667L955 185.333C955 189.567 951.567 193 947.333 193L685.667 193C681.433 193 678 189.567 678 185.333Z" fill="#4472C4" fill-rule="evenodd" fill-opacity="0.501961"/><text fill="#FFFFFF" font-family="Corbel,Corbel_MSFontService,sans-serif" font-style="italic" font-weight="400" font-size="19" transform="translate(729.326 176)">Antares Auto Scheduler</text><path d="M678 230.667C678 226.433 681.433 223 685.667 223L947.333 223C951.567 223 955 226.433 955 230.667L955 261.333C955 265.567 951.567 269 947.333 269L685.667 269C681.433 269 678 265.567 678 261.333Z" fill="#4472C4" fill-rule="evenodd" fill-opacity="0.501961"/><text fill="#FFFFFF" font-family="Corbel,Corbel_MSFontService,sans-serif" font-style="italic" font-weight="400" font-size="19" transform="translate(744.909 252)">OpEvo Auto Search</text><path d="M185 349.001C185 331.327 199.327 317 217.001 317L721.999 317C739.673 317 754 331.327 754 349.001L754 476.999C754 494.673 739.673 509 721.999 509L217.001 509C199.327 509 185 494.673 185 476.999Z" stroke="#FFFFFF" stroke-width="2" stroke-miterlimit="8" fill="#4472C4" fill-rule="evenodd"/><text fill="#FFFFFF" font-family="Corbel,Corbel_MSFontService,sans-serif" font-style="italic" font-weight="400" font-size="20" transform="translate(406.903 348)">Linux Backends</text><path d="M761 349C761 331.327 775.327 317 793 317L1033 317C1050.67 317 1065 331.327 1065 349L1065 477C1065 494.673 1050.67 509 1033 509L793 509C775.327 509 761 494.673 761 477Z" stroke="#FFFFFF" stroke-width="2" stroke-miterlimit="8" fill="#4472C4" fill-rule="evenodd"/><text fill="#FFFFFF" font-family="Corbel,Corbel_MSFontService,sans-serif" font-style="italic" font-weight="400" font-size="20" transform="translate(835.251 348)">Windows Backends</text><rect x="791.5" y="370.5" width="105" height="35" stroke="#000000" stroke-width="0.666667" stroke-miterlimit="8" stroke-dasharray="2.66667 2" fill="url(#fill1)"/><text font-family="Corbel,Corbel_MSFontService,sans-serif" font-style="italic" font-weight="400" font-size="16" transform="translate(804.487 393)">cuda_win64</text><rect x="922.5" y="370.5" width="104" height="35" stroke="#000000" stroke-width="0.666667" stroke-miterlimit="8" stroke-dasharray="2.66667 2" fill="url(#fill2)"/><text font-family="Corbel,Corbel_MSFontService,sans-serif" font-style="italic" font-weight="400" font-size="16" transform="translate(939.536 393)">hlsl_win64</text><rect x="922.5" y="430.5" width="104" height="36" stroke="#000000" stroke-width="0.666667" stroke-miterlimit="8" stroke-dasharray="2.66667 2" fill="url(#fill3)"/><text font-family="Corbel,Corbel_MSFontService,sans-serif" font-style="italic" font-weight="400" font-size="16" transform="translate(944.03 453)">hlsl_xbox</text><rect x="225.5" y="370.5" width="104" height="35" stroke="#000000" stroke-width="0.666667" stroke-miterlimit="8" stroke-dasharray="2.66667 2" fill="url(#fill4)"/><text font-family="Corbel,Corbel_MSFontService,sans-serif" font-style="italic" font-weight="400" font-size="16" transform="translate(261.217 393)">cuda</text><rect x="352.5" y="370.5" width="104" height="35" stroke="#000000" stroke-width="0.666667" stroke-miterlimit="8" stroke-dasharray="2.66667 2" fill="url(#fill5)"/><text font-family="Corbel,Corbel_MSFontService,sans-serif" font-style="italic" font-weight="400" font-size="16" transform="translate(387.916 393)">rocm</text><rect x="481.5" y="370.5" width="104" height="35" stroke="#000000" stroke-width="0.666667" stroke-miterlimit="8" stroke-dasharray="2.66667 2" fill="url(#fill6)"/><text font-family="Corbel,Corbel_MSFontService,sans-serif" font-style="italic" font-weight="400" font-size="16" transform="translate(499.038 393)">scpu/mcpu</text><rect x="612.5" y="429.5" width="104" height="35" stroke="#000000" stroke-width="0.666667" stroke-miterlimit="8" stroke-dasharray="2.66667 2" fill="url(#fill7)"/><text font-family="Corbel,Corbel_MSFontService,sans-serif" font-style="italic" font-weight="400" font-size="16" transform="translate(624.137 452)">ocl_amdgpu</text><rect x="611.5" y="370.5" width="104" height="35" stroke="#000000" stroke-width="0.666667" stroke-miterlimit="8" stroke-dasharray="2.66667 2" fill="url(#fill8)"/><text font-family="Corbel,Corbel_MSFontService,sans-serif" font-style="italic" font-weight="400" font-size="16" transform="translate(630.549 393)">ocl_nvidia</text><rect x="225.5" y="430.5" width="104" height="36" stroke="#000000" stroke-width="0.666667" stroke-miterlimit="8" stroke-dasharray="2.66667 2" fill="url(#fill9)"/><text font-family="Corbel,Corbel_MSFontService,sans-serif" font-style="italic" font-weight="400" font-size="16" transform="translate(246.467 453)">sycl_intel</text><rect x="353.5" y="430.5" width="104" height="36" stroke="#000000" stroke-width="0.666667" stroke-miterlimit="8" stroke-dasharray="2.66667 2" fill="url(#fill10)"/><text font-family="Corbel,Corbel_MSFontService,sans-serif" font-style="italic" font-weight="400" font-size="16" transform="translate(373.033 453)">sycl_cuda</text><rect x="480.5" y="430.5" width="105" height="36" stroke="#000000" stroke-width="0.666667" stroke-miterlimit="8" stroke-dasharray="2.66667 2" fill="url(#fill11)"/><text font-family="Corbel,Corbel_MSFontService,sans-serif" font-style="italic" font-weight="400" font-size="16" transform="translate(500.183 453)">graphcore</text><path d="M788 132 800 132 800 122 824 122 824 132 836 132 812 142Z" fill="#4472C4" fill-rule="evenodd" fill-opacity="0.501961"/><path d="M788 210 800 210 800 200 824 200 824 210 836 210 812 220Z" fill="#4472C4" fill-rule="evenodd" fill-opacity="0.501961"/><path d="M16.8333 0 101 0C91.7032 2.04281e-14 84.1667 15.4462 84.1667 34.5 84.1667 53.5538 91.7032 69 101 69L16.8333 69C7.53654 69-1.86888e-15 53.5538-1.86888e-15 34.5-1.86888e-15 15.4462 7.53654 1.53211e-14 16.8333 5.10703e-15Z" stroke="#FFFFFF" stroke-width="2" stroke-miterlimit="8" fill-rule="evenodd" transform="matrix(-1 0 0 1 286 581)"/><text fill="#FFFFFF" font-family="Corbel,Corbel_MSFontService,sans-serif" font-style="italic" font-weight="400" font-size="13" transform="translate(220.022 612)">NVIDIA <tspan font-size="13" x="7.41333" y="16">GPU</tspan></text><path d="M17 0 102 0C92.6112 2.04281e-14 85 15.4462 85 34.5 85 53.5538 92.6112 69 102 69L17 69C7.61116 69-1.88738e-15 53.5538-1.88738e-15 34.5-1.88738e-15 15.4462 7.61116 1.53211e-14 17 5.10703e-15Z" stroke="#FFFFFF" stroke-width="2" stroke-miterlimit="8" fill-rule="evenodd" transform="matrix(-1 0 0 1 419 582)"/><text fill="#FFFFFF" font-family="Corbel,Corbel_MSFontService,sans-serif" font-style="italic" font-weight="400" font-size="13" transform="translate(345.099 621)">AMD GPU</text><path d="M16.8333 0 101 0C91.7032 2.04281e-14 84.1667 15.4462 84.1667 34.5 84.1667 53.5538 91.7032 69 101 69L16.8333 69C7.53654 69-1.86888e-15 53.5538-1.86888e-15 34.5-1.86888e-15 15.4462 7.53654 1.53211e-14 16.8333 5.10703e-15Z" stroke="#FFFFFF" stroke-width="2" stroke-miterlimit="8" fill-rule="evenodd" transform="matrix(-1 0 0 1 549 583)"/><text fill="#FFFFFF" font-family="Corbel,Corbel_MSFontService,sans-serif" font-style="italic" font-weight="400" font-size="13" transform="translate(483.31 613)">Generic <tspan font-size="13" x="8.25333" y="16">CPU</tspan></text><path d="M17 0 102 0C92.6112 2.04281e-14 85 15.4462 85 34.5 85 53.5538 92.6112 69 102 69L17 69C7.61116 69-1.88738e-15 53.5538-1.88738e-15 34.5-1.88738e-15 15.4462 7.61116 1.53211e-14 17 5.10703e-15Z" stroke="#FFFFFF" stroke-width="2" stroke-miterlimit="8" fill-rule="evenodd" transform="matrix(-1 0 0 1 816 581)"/><text fill="#FFFFFF" font-family="Corbel,Corbel_MSFontService,sans-serif" font-style="italic" font-weight="400" font-size="13" transform="translate(759.789 620)">IPU</text><path d="M16.8333 0 101 0C91.7032 2.04281e-14 84.1667 15.4462 84.1667 34.5 84.1667 53.5538 91.7032 69 101 69L16.8333 69C7.53654 69-1.86888e-15 53.5538-1.86888e-15 34.5-1.86888e-15 15.4462 7.53654 1.53211e-14 16.8333 5.10703e-15Z" stroke="#FFFFFF" stroke-width="2" stroke-miterlimit="8" fill-rule="evenodd" transform="matrix(-1 0 0 1 947 582)"/><text fill="#FFFFFF" font-family="Corbel,Corbel_MSFontService,sans-serif" font-style="italic" font-weight="400" font-size="13" transform="translate(876.881 605)">Windows<tspan font-size="13" x="5" y="16">DirectX</tspan><tspan font-size="13" x="18.3334" y="32">12</tspan></text><path d="M17 0 102 0C92.6112 2.04281e-14 85 15.4462 85 34.5 85 53.5538 92.6112 69 102 69L17 69C7.61116 69-1.88738e-15 53.5538-1.88738e-15 34.5-1.88738e-15 15.4462 7.61116 1.53211e-14 17 5.10703e-15Z" stroke="#FFFFFF" stroke-width="2" stroke-miterlimit="8" fill-rule="evenodd" transform="matrix(-1 0 0 1 684 582)"/><text fill="#FFFFFF" font-family="Corbel,Corbel_MSFontService,sans-serif" font-style="italic" font-weight="400" font-size="13" transform="translate(615.999 605)">Intel HD <tspan font-size="13" x="-2.2533" y="16">Graphic / </tspan><tspan font-size="13" x="6.33337" y="32">FPGA</tspan></text><path d="M0.650518-0.145847 38.4514 168.457 37.1504 168.748-0.650518 0.145847ZM37.8008 168.602 43.1392 161.94 39.551 176.408 30.1289 164.857Z" fill="#000000" fill-opacity="0.45098" transform="matrix(-1 0 0 1 275.051 405.5)"/><path d="M0.653318-0.132739 35.094 169.378 33.7873 169.644-0.653318 0.132739ZM34.4406 169.511 39.9119 162.957 36.0335 177.351 26.8455 165.612Z" fill="#000000" fill-opacity="0.45098" transform="matrix(-1 0 0 1 404.534 405.5)"/><path d="M277.812 465.911 492.702 579.741 492.078 580.919 277.188 467.089ZM492.39 580.33 490.798 571.942 499.459 584.075 484.556 583.725Z" fill="#000000" fill-opacity="0.45098"/><path d="M553.816 466.913 758.766 577.14 758.134 578.314 553.184 468.087ZM758.45 577.727 756.911 569.329 765.496 581.516 750.595 581.072Z" fill="#000000" fill-opacity="0.45098"/><path d="M277.708 465.867 626.502 580.227 626.086 581.494 277.292 467.134ZM626.293 580.86 623.302 572.863 633.895 583.352 619.148 585.533Z" fill="#000000" fill-opacity="0.45098"/><path d="M0.411432-0.524565 139.484 108.554 138.661 109.603-0.411432 0.524565ZM139.072 109.079 138.99 100.541 145.367 114.016 130.761 111.033Z" fill="#000000" fill-opacity="0.45098" transform="matrix(-1 0 0 1 380.867 467.5)"/><path d="M0.254176-0.616311 420.601 172.741 420.092 173.974-0.254176 0.616311ZM420.348 173.358 417.959 165.162 427.744 176.408 412.876 177.488Z" fill="#000000" fill-opacity="0.45098" transform="matrix(-1 0 0 1 663.244 405.5)"/><path d="M0.247654-0.61896 288.492 114.711 287.997 115.949-0.247654 0.61896ZM288.244 115.33 285.769 107.159 295.671 118.302 280.816 119.538Z" fill="#000000" fill-opacity="0.45098" transform="matrix(-1 0 0 1 664.171 464.5)"/><path d="M0.65445-0.127044 33.7411 170.315 32.4322 170.569-0.65445 0.127044ZM33.0867 170.442 38.6148 163.936 34.6112 178.295 25.5259 166.477Z" fill="#000000" fill-opacity="0.45098" transform="matrix(-1 0 0 1 534.111 405.5)"/><path d="M0.185717-0.640276 600.694 173.542 600.322 174.822-0.185717 0.640276ZM600.499 174.179 597.234 166.291 608.182 176.408 593.519 179.096Z" fill="#000000" fill-opacity="0.45098" transform="matrix(-1 0 0 1 843.682 405.5)"/><path d="M0.160116-0.647153 468.492 115.226 468.171 116.52-0.160116 0.647153ZM468.335 115.874 464.759 108.121 476.101 117.795 461.556 121.064Z" fill="#000000" fill-opacity="0.45098" transform="matrix(-1 0 0 1 844.601 464.5)"/><rect x="792.5" y="429.5" width="104" height="35" stroke="#000000" stroke-width="0.666667" stroke-miterlimit="8" stroke-dasharray="2.66667 2" fill="url(#fill12)"/><text font-family="Corbel,Corbel_MSFontService,sans-serif" font-style="italic" font-weight="400" font-size="16" transform="translate(804.483 452)">rocm_win64</text><path d="M0.610943-0.26682 74.8647 169.753 73.6428 170.287-0.610943 0.26682ZM74.2536 170.02 78.2285 162.464 77.4554 177.351 66.0096 167.8Z" fill="#000000" fill-opacity="0.45098" transform="matrix(-1 0 0 1 974.956 405.5)"/><path d="M975.109 466.23 1023.21 574.605 1021.99 575.146 973.891 466.771ZM1022.6 574.875 1026.53 567.296 1025.84 582.188 1014.34 572.705Z" fill="#000000" fill-opacity="0.45098"/><path d="M16.8333 0 101 0C91.7032 2.04281e-14 84.1667 15.4462 84.1667 34.5 84.1667 53.5538 91.7032 69 101 69L16.8333 69C7.53654 69-1.86888e-15 53.5538-1.86888e-15 34.5-1.86888e-15 15.4462 7.53654 1.53211e-14 16.8333 5.10703e-15Z" stroke="#FFFFFF" stroke-width="2" stroke-miterlimit="8" fill-rule="evenodd" transform="matrix(-1 0 0 1 1076 581)"/><text fill="#FFFFFF" font-family="Corbel,Corbel_MSFontService,sans-serif" font-style="italic" font-weight="400" font-size="13" transform="translate(1017.01 620)">Xbox</text><path d="M0.30633-0.59212 335.45 172.793 334.838 173.977-0.30633 0.59212ZM335.144 173.385 333.47 165.013 342.249 177.061 327.344 176.855Z" fill="#000000" fill-opacity="0.45098" transform="matrix(-1 0 0 1 975.749 405.5)"/><path d="M227.656 259C234.646 259 240.313 253.334 240.313 246.344L227.656 246.344C231.151 246.344 233.985 243.51 233.985 240.015 233.985 236.52 231.151 233.687 227.656 233.687L240.313 233.687 240.313 80.6564C240.313 73.6665 245.98 68 252.97 68L600.344 68C607.333 68 613 73.6665 613 80.6564 613 87.6464 607.333 93.3129 600.344 93.3129L587.687 93.3133 587.687 246.344C587.687 253.334 582.02 259 575.03 259ZM265.627 80.6564C265.627 87.6464 259.96 93.3129 252.97 93.3129 249.475 93.3129 246.642 90.4796 246.642 86.9847 246.642 83.4897 249.475 80.6564 252.97 80.6564Z" fill="#A5A5A5" fill-rule="evenodd"/><path d="M265.627 80.6564C265.627 87.6464 259.96 93.3129 252.97 93.3129 249.475 93.3129 246.642 90.4796 246.642 86.9847 246.642 83.4897 249.475 80.6564 252.97 80.6564ZM240.313 246.344C240.313 253.334 234.647 259 227.657 259 220.667 259 215 253.334 215 246.344 215 239.354 220.667 233.687 227.657 233.687 231.152 233.687 233.985 236.52 233.985 240.015 233.985 243.51 231.152 246.344 227.657 246.344Z" fill="#858585" fill-rule="evenodd"/><path d="M240.313 233.687 240.313 80.6564C240.313 73.6665 245.98 68 252.97 68L600.344 68C607.333 68 613 73.6665 613 80.6564 613 87.6464 607.333 93.3129 600.344 93.3129L587.687 93.3133 587.687 246.344C587.687 253.334 582.02 259 575.03 259L227.656 259C220.666 259 215 253.334 215 246.344 215 239.354 220.666 233.687 227.656 233.687ZM252.97 68C259.96 68 265.626 73.6665 265.626 80.6564 265.626 87.6464 259.96 93.3129 252.97 93.3129 249.475 93.3129 246.642 90.4796 246.642 86.9847 246.642 83.4897 249.475 80.6564 252.97 80.6564L265.627 80.6564M587.687 93.3133 252.97 93.3133M227.656 233.687C231.151 233.687 233.985 236.52 233.985 240.015 233.985 243.51 231.151 246.343 227.656 246.343L240.313 246.344M227.656 259C234.646 259 240.313 253.334 240.313 246.344L240.313 233.687" stroke="#FFFFFF" stroke-width="2" stroke-miterlimit="8" fill="none" fill-rule="evenodd"/><text font-family="Corbel,Corbel_MSFontService,sans-serif" font-style="italic" font-weight="700" font-size="13" transform="translate(258.963 116)">User Input: data;<tspan fill="#FFFFFF" font-style="normal" font-weight="400" font-size="12" x="0" y="30">data_0[N, M] +=!  data[N, K] * weight_0[K, M];</tspan><tspan fill="#FFFFFF" font-style="normal" font-weight="400" font-size="12" x="0" y="44">data_1[N, K] =   (data_0[N, K] + bias_0[K]).call(`max`, [0.0]);</tspan><tspan fill="#FFFFFF" font-style="normal" font-weight="400" font-size="12" x="0" y="58">data_2[N, M] +=!  data_1[N, K] * weight_1[K, M];</tspan><tspan fill="#FFFFFF" font-style="normal" font-weight="400" font-size="12" x="0" y="73">data_3[N, K] =   (data_2[N, K] + bias_1[K]).call(`max`, [0.0]);</tspan><tspan fill="#FFFFFF" font-style="normal" font-weight="400" font-size="12" x="0" y="87">data_4[N, M] +=!  data_3[N, K] * weight_2[K, M];</tspan><tspan fill="#FFFFFF" font-style="normal" font-weight="400" font-size="12" x="0" y="102">data_5[N, K] =   (data_4[N, K] + bias_2[K]);</tspan><tspan fill="#FFFFFF" font-style="normal" font-weight="400" font-size="12" x="0" y="116">…</tspan></text><path d="M692.374 280.356 700.047 288.03 712.134 275.943 727.482 291.29 715.395 303.377 723.069 311.051 695.634 307.791Z" fill="#4472C4" fill-rule="evenodd" fill-opacity="0.501961"/><path d="M650.949 118.244 648.816 110.285 621.514 117.601 617.249 101.683 644.551 94.3671 642.418 86.408 662.602 98.0609Z" fill="#4472C4" fill-rule="evenodd" fill-opacity="0.501961"/><path d="M868.447 309.78 876.121 302.106 864.034 290.019 879.382 274.671 891.469 286.758 899.142 279.085 895.882 306.519Z" fill="#4472C4" fill-rule="evenodd" fill-opacity="0.501961"/></g></svg>