<svg width="1280" height="720" xmlns="http://www.w3.org/2000/svg" xmlns:xlink="http://www.w3.org/1999/xlink" overflow="hidden"><defs><clipPath id="clip0"><rect x="0" y="0" width="1280" height="720"/></clipPath><linearGradient x1="844" y1="370.5" x2="844" y2="405.5" gradientUnits="userSpaceOnUse" spreadMethod="reflect" id="fill1"><stop offset="0" stop-color="#FFDD9C"/><stop offset="0.5" stop-color="#FFD78E"/><stop offset="1" stop-color="#FFD479"/></linearGradient><linearGradient x1="974.5" y1="370.5" x2="974.5" y2="405.5" gradientUnits="userSpaceOnUse" spreadMethod="reflect" id="fill2"><stop offset="0" stop-color="#FFDD9C"/><stop offset="0.5" stop-color="#FFD78E"/><stop offset="1" stop-color="#FFD479"/></linearGradient><linearGradient x1="974.5" y1="430.5" x2="974.5" y2="466.5" gradientUnits="userSpaceOnUse" spreadMethod="reflect" id="fill3"><stop offset="0" stop-color="#FFDD9C"/><stop offset="0.5" stop-color="#FFD78E"/><stop offset="1" stop-color="#FFD479"/></linearGradient><linearGradient x1="277.5" y1="370.5" x2="277.5" y2="405.5" gradientUnits="userSpaceOnUse" spreadMethod="reflect" id="fill4"><stop offset="0" stop-color="#FFDD9C"/><stop offset="0.5" stop-color="#FFD78E"/><stop offset="1" stop-color="#FFD479"/></linearGradient><linearGradient x1="404.5" y1="370.5" x2="404.5" y2="405.5" gradientUnits="userSpaceOnUse" spreadMethod="reflect" id="fill5"><stop offset="0" stop-color="#FFDD9C"/><stop offset="0.5" stop-color="#FFD78E"/><stop offset="1" stop-color="#FFD479"/></linearGradient><linearGradient x1="533.5" y1="370.5" x2="533.5" y2="405.5" gradientUnits="userSpaceOnUse" spreadMethod="reflect" id="fill6"><stop offset="0" stop-color="#FFDD9C"/><stop offset="0.5" stop-color="#FFD78E"/><stop offset="1" stop-color="#FFD479"/></linearGradient><linearGradient x1="664.5" y1="429.5" x2="664.5" y2="464.5" gradientUnits="userSpaceOnUse" spreadMethod="reflect" id="fill7"><stop offset="0" stop-color="#FFDD9C"/><stop offset="0.5" stop-color="#FFD78E"/><stop offset="1" stop-color="#FFD479"/></linearGradient><linearGradient x1="663.5" y1="370.5" x2="663.5" y2="405.5" gradientUnits="userSpaceOnUse" spreadMethod="reflect" id="fill8"><stop offset="0" stop-color="#FFDD9C"/><stop offset="0.5" stop-color="#FFD78E"/><stop offset="1" stop-color="#FFD479"/></linearGradient><linearGradient x1="277.5" y1="430.5" x2="277.5" y2="466.5" gradientUnits="userSpaceOnUse" spreadMethod="reflect" id="fill9"><stop offset="0" stop-color="#FFDD9C"/><stop offset="0.5" stop-color="#FFD78E"/><stop offset="1" stop-color="#FFD479"/></linearGradient><linearGradient x1="405.5" y1="430.5" x2="405.5" y2="466.5" gradientUnits="userSpaceOnUse" spreadMethod="reflect" id="fill10"><stop offset="0" stop-color="#FFDD9C"/><stop offset="0.5" stop-color="#FFD78E"/><stop offset="1" stop-color="#FFD479"/></linearGradient><linearGradient x1="533" y1="430.5" x2="533" y2="466.5" gradientUnits="userSpaceOnUse" spreadMethod="reflect" id="fill11"><stop offset="0" stop-color="#FFDD9C"/><stop offset="0.5" stop-color="#FFD78E"/><stop offset="1" stop-color="#FFD479"/></linearGradient><linearGradient x1="844.5" y1="429.5" x2="844.5" y2="464.5" gradientUnits="userSpaceOnUse" spreadMethod="reflect" id="fill12"><stop offset="0" stop-color="#FFDD9C"/><stop offset="0.5" stop-color="#FFD78E"/><stop offset="1" stop-color="#FFD479"/></linearGradient></defs><g clip-path="url(#clip0)"><rect x="0" y="0" width="1280" height="720" fill="#FFFFFF"/><path d="M677 75.5C677 71.3579 680.358 68 684.5 68L946.5 68C950.642 68 954 71.3579 954 75.5L954 105.5C954 109.642 950.642 113 946.5 113L684.5 113C680.358 113 677 109.642 677 105.5Z" fill="#70AD47" fill-rule="evenodd"/><text fill="#FFFFFF" font-family="Corbel,Corbel_MSFontService,sans-serif" font-style="italic" font-weight="400" font-size="19" transform="translate(735.429 97)">Antares IR (Frontend)</text><path d="M678 154.667C678 150.433 681.433 147 685.667 147L947.333 147C951.567 147 955 150.433 955 154.667L955 185.333C955 189.567 951.567 193 947.333 193L685.667 193C681.433 193 678 189.567 678 185.333Z" fill="#4472C4" fill-rule="evenodd" fill-opacity="0.501961"/><text fill="#FFFFFF" font-family="Corbel,Corbel_MSFontService,sans-serif" font-style="italic" font-weight="400" font-size="19" transform="translate(729.326 176)">Antares Auto Scheduler</text><path d="M678 230.667C678 226.433 681.433 223 685.667 223L947.333 223C951.567 223 955 226.433 955 230.667L955 261.333C955 265.567 951.567 269 947.333 269L685.667 269C681.433 269 678 265.567 678 261.333Z" fill="#4472C4" fill-rule="evenodd" fill-opacity="0.501961"/><text fill="#FFFFFF" font-family="Corbel,Corbel_MSFontService,sans-serif" font-style="italic" font-weight="400" font-size="19" transform="translate(744.909 252)">OpEvo Auto Search</text><path d="M185 349.001C185 331.327 199.327 317 217.001 317L721.999 317C739.673 317 754 331.327 754 349.001L754 476.999C754 494.673 739.673 509 721.999 509L217.001 509C199.327 509 185 494.673 185 476.999Z" stroke="#FFFFFF" stroke-width="2" stroke-miterlimit="8" fill="#4472C4" fill-rule="evenodd"/><text fill="#FFFFFF" font-family="Corbel,Corbel_MSFontService,sans-serif" font-style="italic" font-weight="400" font-size="20" transform="translate(406.903 348)">Linux Backends</text><path d="M761 349C761 331.327 775.327 317 793 317L1033 317C1050.67 317 1065 331.327 1065 349L1065 477C1065 494.673 1050.67 509 1033 509L793 509C775.327 509 761 494.673 761 477Z" stroke="#FFFFFF" stroke-width="2" stroke-miterlimit="8" fill="#4472C4" fill-rule="evenodd"/><text fill="#FFFFFF" font-family="Corbel,Corbel_MSFontService,sans-serif" font-style="italic" font-weight="400" font-size="20" transform="translate(835.251 348)">Windows Backends</text><rect x="791.5" y="370.5" width="105" height="35" stroke="#000000" stroke-width="0.666667" stroke-miterlimit="8" stroke-dasharray="2.66667 2" fill="url(#fill1)"/><text font-family="Corbel,Corbel_MSFontService,sans-serif" font-style="italic" font-weight="400" font-size="16" transform="translate(804.487 393)">cuda_win64</text><rect x="922.5" y="370.5" width="104" height="35" stroke="#000000" stroke-width="0.666667" stroke-miterlimit="8" stroke-dasharray="2.66667 2" fill="url(#fill2)"/><text font-family="Corbel,Corbel_MSFontService,sans-serif" font-style="italic" font-weight="400" font-size="16" transform="translate(939.536 393)">hlsl_win64</text><rect x="922.5" y="430.5" width="104" height="36" stroke="#000000" stroke-width="0.666667" stroke-miterlimit="8" stroke-dasharray="2.66667 2" fill="url(#fill3)"/><text font-family="Corbel,Corbel_MSFontService,sans-serif" font-style="italic" font-weight="400" font-size="16" transform="translate(944.03 453)">hlsl_xbox</text><rect x="225.5" y="370.5" width="104" height="35" stroke="#000000" stroke-width="0.666667" stroke-miterlimit="8" stroke-dasharray="2.66667 2" fill="url(#fill4)"/><text font-family="Corbel,Corbel_MSFontService,sans-serif" font-style="italic" font-weight="400" font-size="16" transform="translate(259.054 383)">cuda/<tspan font-size="16" x="-13.92" y="19">sycl_cuda</tspan></text><rect x="352.5" y="370.5" width="104" height="35" stroke="#000000" stroke-width="0.666667" stroke-miterlimit="8" stroke-dasharray="2.66667 2" fill="url(#fill5)"/><text font-family="Corbel,Corbel_MSFontService,sans-serif" font-style="italic" font-weight="400" font-size="16" transform="translate(387.916 393)">rocm</text><rect x="481.5" y="370.5" width="104" height="35" stroke="#000000" stroke-width="0.666667" stroke-miterlimit="8" stroke-dasharray="2.66667 2" fill="url(#fill6)"/><text font-family="Corbel,Corbel_MSFontService,sans-serif" font-style="italic" font-weight="400" font-size="16" transform="translate(499.038 393)">scpu/mcpu</text><rect x="612.5" y="429.5" width="104" height="35" stroke="#000000" stroke-width="0.666667" stroke-miterlimit="8" stroke-dasharray="2.66667 2" fill="url(#fill7)"/><text font-family="Corbel,Corbel_MSFontService,sans-serif" font-style="italic" font-weight="400" font-size="16" transform="translate(625.97 452)">ocl<tspan font-size="16" x="18.3334" y="0">_android</tspan></text><rect x="611.5" y="370.5" width="104" height="35" stroke="#000000" stroke-width="0.666667" stroke-miterlimit="8" stroke-dasharray="2.66667 2" fill="url(#fill8)"/><text font-family="Corbel,Corbel_MSFontService,sans-serif" font-style="italic" font-weight="400" font-size="16" transform="translate(630.549 393)">ocl_nvidia</text><rect x="225.5" y="430.5" width="104" height="36" stroke="#000000" stroke-width="0.666667" stroke-miterlimit="8" stroke-dasharray="2.66667 2" fill="url(#fill9)"/><text font-family="Corbel,Corbel_MSFontService,sans-serif" font-style="italic" font-weight="400" font-size="16" transform="translate(246.467 453)">sycl_intel</text><rect x="353.5" y="430.5" width="104" height="36" stroke="#000000" stroke-width="0.666667" stroke-miterlimit="8" stroke-dasharray="2.66667 2" fill="url(#fill10)"/><text font-family="Corbel,Corbel_MSFontService,sans-serif" font-style="italic" font-weight="400" font-size="16" transform="translate(365.117 453)">ocl_amdgpu</text><rect x="480.5" y="430.5" width="105" height="36" stroke="#000000" stroke-width="0.666667" stroke-miterlimit="8" stroke-dasharray="2.66667 2" fill="url(#fill11)"/><text font-family="Corbel,Corbel_MSFontService,sans-serif" font-style="italic" font-weight="400" font-size="16" transform="translate(500.183 453)">graphcore</text><path d="M788 132 800 132 800 122 824 122 824 132 836 132 812 142Z" fill="#4472C4" fill-rule="evenodd" fill-opacity="0.501961"/><path d="M788 210 800 210 800 200 824 200 824 210 836 210 812 220Z" fill="#4472C4" fill-rule="evenodd" fill-opacity="0.501961"/><path d="M16.8333 0 101 0C91.7032 2.04281e-14 84.1667 15.4462 84.1667 34.5 84.1667 53.5538 91.7032 69 101 69L16.8333 69C7.53654 69-1.86888e-15 53.5538-1.86888e-15 34.5-1.86888e-15 15.4462 7.53654 1.53211e-14 16.8333 5.10703e-15Z" stroke="#FFFFFF" stroke-width="2" stroke-miterlimit="8" fill-rule="evenodd" transform="matrix(-1 0 0 1 273 581)"/><text fill="#FFFFFF" font-family="Corbel,Corbel_MSFontService,sans-serif" font-style="italic" font-weight="400" font-size="13" transform="translate(206.976 612)">NVIDIA <tspan font-size="13" x="7.41333" y="16">GPU</tspan></text><path d="M16.8333 0 101 0C91.7032 2.04281e-14 84.1667 15.4462 84.1667 34.5 84.1667 53.5538 91.7032 69 101 69L16.8333 69C7.53654 69-1.86888e-15 53.5538-1.86888e-15 34.5-1.86888e-15 15.4462 7.53654 1.53211e-14 16.8333 5.10703e-15Z" stroke="#FFFFFF" stroke-width="2" stroke-miterlimit="8" fill-rule="evenodd" transform="matrix(-1 0 0 1 398 582)"/><text fill="#FFFFFF" font-family="Corbel,Corbel_MSFontService,sans-serif" font-style="italic" font-weight="400" font-size="13" transform="translate(324.748 621)">AMD GPU</text><path d="M17 0 102 0C92.6112 2.04281e-14 85 15.4462 85 34.5 85 53.5538 92.6112 69 102 69L17 69C7.61116 69-1.88738e-15 53.5538-1.88738e-15 34.5-1.88738e-15 15.4462 7.61116 1.53211e-14 17 5.10703e-15Z" stroke="#FFFFFF" stroke-width="2" stroke-miterlimit="8" fill-rule="evenodd" transform="matrix(-1 0 0 1 522 583)"/><text fill="#FFFFFF" font-family="Corbel,Corbel_MSFontService,sans-serif" font-style="italic" font-weight="400" font-size="13" transform="translate(455.656 613)">Generic <tspan font-size="13" x="8.25333" y="16">CPU</tspan></text><path d="M17 0 102 0C92.6112 2.04281e-14 85 15.4462 85 34.5 85 53.5538 92.6112 69 102 69L17 69C7.61116 69-1.88738e-15 53.5538-1.88738e-15 34.5-1.88738e-15 15.4462 7.61116 1.53211e-14 17 5.10703e-15Z" stroke="#FFFFFF" stroke-width="2" stroke-miterlimit="8" fill-rule="evenodd" transform="matrix(-1 0 0 1 878 581)"/><text fill="#FFFFFF" font-family="Corbel,Corbel_MSFontService,sans-serif" font-style="italic" font-weight="400" font-size="13" transform="translate(821.875 620)">IPU</text><path d="M16.8333 0 101 0C91.7032 2.04281e-14 84.1667 15.4462 84.1667 34.5 84.1667 53.5538 91.7032 69 101 69L16.8333 69C7.53654 69-1.86888e-15 53.5538-1.86888e-15 34.5-1.86888e-15 15.4462 7.53654 1.53211e-14 16.8333 5.10703e-15Z" stroke="#FFFFFF" stroke-width="2" stroke-miterlimit="8" fill-rule="evenodd" transform="matrix(-1 0 0 1 991 582)"/><text fill="#FFFFFF" font-family="Corbel,Corbel_MSFontService,sans-serif" font-style="italic" font-weight="400" font-size="13" transform="translate(920.705 605)">Windows<tspan font-size="13" x="5" y="16">DirectX</tspan><tspan font-size="13" x="18.3333" y="32">12</tspan></text><path d="M17 0 102 0C92.6112 2.04281e-14 85 15.4462 85 34.5 85 53.5538 92.6112 69 102 69L17 69C7.61116 69-1.88738e-15 53.5538-1.88738e-15 34.5-1.88738e-15 15.4462 7.61116 1.53211e-14 17 5.10703e-15Z" stroke="#FFFFFF" stroke-width="2" stroke-miterlimit="8" fill-rule="evenodd" transform="matrix(-1 0 0 1 647 582)"/><text fill="#FFFFFF" font-family="Corbel,Corbel_MSFontService,sans-serif" font-style="italic" font-weight="400" font-size="13" transform="translate(578.953 605)">Intel HD <tspan font-size="13" x="-2.25336" y="16">Graphic / </tspan><tspan font-size="13" x="6.33331" y="32">FPGA</tspan></text><path d="M0.650518-0.145847 38.4514 168.457 37.1504 168.748-0.650518 0.145847ZM37.8008 168.602 43.1392 161.94 39.551 176.408 30.1289 164.857Z" fill="#000000" fill-opacity="0.45098" transform="matrix(-1 0 0 1 262.051 405.5)"/><path d="M0.635331-0.201987 54.5956 169.524 53.3249 169.928-0.635331 0.201987ZM53.9603 169.727 58.6977 162.624 56.3841 177.351 45.9911 166.664Z" fill="#000000" fill-opacity="0.45098" transform="matrix(-1 0 0 1 404.884 405.5)"/><path d="M277.845 465.93 465.306 579.363 464.616 580.503 277.155 467.07ZM464.961 579.933 463.849 571.468 471.806 584.075 456.947 582.876Z" fill="#000000" fill-opacity="0.45098"/><path d="M533.744 465.88 820.69 578.641 820.203 579.882 533.256 467.121ZM820.446 579.262 817.921 571.106 827.892 582.188 813.044 583.516Z" fill="#000000" fill-opacity="0.45098"/><path d="M277.729 465.874 589.566 579.977 589.108 581.229 277.271 467.126ZM589.336 580.603 586.619 572.51 596.849 583.352 582.037 585.031Z" fill="#000000" fill-opacity="0.45098"/><path d="M0.598958-0.292735 54.0879 109.15 52.89 109.735-0.598958 0.292735ZM53.489 109.443 57.1367 101.724 57.0018 116.63 45.1575 107.578Z" fill="#000000" fill-opacity="0.45098" transform="matrix(-1 0 0 1 405.502 466.5)"/><path d="M0.247706-0.61894 433.609 172.817 433.114 174.055-0.247706 0.61894ZM433.362 173.436 430.888 165.265 440.789 176.408 425.934 177.644Z" fill="#000000" fill-opacity="0.45098" transform="matrix(-1 0 0 1 663.289 405.5)"/><path d="M665.117 464.247 710.88 575.655 709.647 576.162 663.883 464.753ZM710.263 575.908 714.404 568.442 713.303 583.308 702.07 573.508Z" fill="#000000" fill-opacity="0.45098"/><path d="M0.629391-0.219799 60.2571 170.523 58.9983 170.963-0.629391 0.219799ZM59.6275 170.743 64.163 163.509 62.2651 178.295 51.5752 167.905Z" fill="#000000" fill-opacity="0.45098" transform="matrix(-1 0 0 1 533.765 405.5)"/><path d="M0.182111-0.641311 613.721 173.583 613.356 174.866-0.182111 0.641311ZM613.532 174.222 610.223 166.352 621.228 176.408 606.58 179.179Z" fill="#000000" fill-opacity="0.45098" transform="matrix(-1 0 0 1 843.728 405.5)"/><path d="M0.15391-0.648657 488.821 115.299 488.513 116.597-0.15391 0.648657ZM488.667 115.948 485.017 108.23 496.451 117.795 481.939 121.203Z" fill="#000000" fill-opacity="0.45098" transform="matrix(-1 0 0 1 844.951 464.5)"/><rect x="792.5" y="429.5" width="104" height="35" stroke="#000000" stroke-width="0.666667" stroke-miterlimit="8" stroke-dasharray="2.66667 2" fill="url(#fill12)"/><text font-family="Corbel,Corbel_MSFontService,sans-serif" font-style="italic" font-weight="400" font-size="16" transform="translate(804.483 452)">rocm_win64</text><path d="M0.654994-0.124208 32.7961 169.367 31.4861 169.616-0.654994 0.124208ZM32.141 169.491 37.6973 163.009 33.6315 177.351 24.5974 165.493Z" fill="#000000" fill-opacity="0.45098" transform="matrix(-1 0 0 1 975.132 405.5)"/><path d="M975.032 466.098 1057.55 575.401 1056.49 576.205 973.968 466.902ZM1057.02 575.803 1059.13 567.53 1061.84 582.188 1048.49 575.563Z" fill="#000000" fill-opacity="0.45098"/><path d="M16.8333 0 101 0C91.7032 2.04281e-14 84.1667 15.4462 84.1667 34.5 84.1667 53.5538 91.7032 69 101 69L16.8333 69C7.53654 69-1.86888e-15 53.5538-1.86888e-15 34.5-1.86888e-15 15.4462 7.53654 1.53211e-14 16.8333 5.10703e-15Z" stroke="#FFFFFF" stroke-width="2" stroke-miterlimit="8" fill-rule="evenodd" transform="matrix(-1 0 0 1 1112 581)"/><text fill="#FFFFFF" font-family="Corbel,Corbel_MSFontService,sans-serif" font-style="italic" font-weight="400" font-size="13" transform="translate(1053.01 620)">Xbox</text><path d="M0.30633-0.59212 335.45 172.793 334.838 173.977-0.30633 0.59212ZM335.144 173.385 333.47 165.013 342.249 177.061 327.344 176.855Z" fill="#000000" fill-opacity="0.45098" transform="matrix(-1 0 0 1 938.749 405.5)"/><path d="M227.656 259C234.646 259 240.313 253.334 240.313 246.344L227.656 246.344C231.151 246.344 233.985 243.51 233.985 240.015 233.985 236.52 231.151 233.687 227.656 233.687L240.313 233.687 240.313 80.6564C240.313 73.6665 245.98 68 252.97 68L600.344 68C607.333 68 613 73.6665 613 80.6564 613 87.6464 607.333 93.3129 600.344 93.3129L587.687 93.3133 587.687 246.344C587.687 253.334 582.02 259 575.03 259ZM265.627 80.6564C265.627 87.6464 259.96 93.3129 252.97 93.3129 249.475 93.3129 246.642 90.4796 246.642 86.9847 246.642 83.4897 249.475 80.6564 252.97 80.6564Z" fill="#A5A5A5" fill-rule="evenodd"/><path d="M265.627 80.6564C265.627 87.6464 259.96 93.3129 252.97 93.3129 249.475 93.3129 246.642 90.4796 246.642 86.9847 246.642 83.4897 249.475 80.6564 252.97 80.6564ZM240.313 246.344C240.313 253.334 234.647 259 227.657 259 220.667 259 215 253.334 215 246.344 215 239.354 220.667 233.687 227.657 233.687 231.152 233.687 233.985 236.52 233.985 240.015 233.985 243.51 231.152 246.344 227.657 246.344Z" fill="#858585" fill-rule="evenodd"/><path d="M240.313 233.687 240.313 80.6564C240.313 73.6665 245.98 68 252.97 68L600.344 68C607.333 68 613 73.6665 613 80.6564 613 87.6464 607.333 93.3129 600.344 93.3129L587.687 93.3133 587.687 246.344C587.687 253.334 582.02 259 575.03 259L227.656 259C220.666 259 215 253.334 215 246.344 215 239.354 220.666 233.687 227.656 233.687ZM252.97 68C259.96 68 265.626 73.6665 265.626 80.6564 265.626 87.6464 259.96 93.3129 252.97 93.3129 249.475 93.3129 246.642 90.4796 246.642 86.9847 246.642 83.4897 249.475 80.6564 252.97 80.6564L265.627 80.6564M587.687 93.3133 252.97 93.3133M227.656 233.687C231.151 233.687 233.985 236.52 233.985 240.015 233.985 243.51 231.151 246.343 227.656 246.343L240.313 246.344M227.656 259C234.646 259 240.313 253.334 240.313 246.344L240.313 233.687" stroke="#FFFFFF" stroke-width="2" stroke-miterlimit="8" fill="none" fill-rule="evenodd"/><text font-family="Corbel,Corbel_MSFontService,sans-serif" font-style="italic" font-weight="700" font-size="13" transform="translate(258.963 116)">User Input: data;<tspan fill="#FFFFFF" font-style="normal" font-weight="400" font-size="12" x="0" y="30">data_0[N, M] +=!  data[N, K] * weight_0[K, M];</tspan><tspan fill="#FFFFFF" font-style="normal" font-weight="400" font-size="12" x="0" y="44">data_1[N, K] =   (data_0[N, K] + bias_0[K]).call(`max`, [0.0]);</tspan><tspan fill="#FFFFFF" font-style="normal" font-weight="400" font-size="12" x="0" y="58">data_2[N, M] +=!  data_1[N, K] * weight_1[K, M];</tspan><tspan fill="#FFFFFF" font-style="normal" font-weight="400" font-size="12" x="0" y="73">data_3[N, K] =   (data_2[N, K] + bias_1[K]).call(`max`, [0.0]);</tspan><tspan fill="#FFFFFF" font-style="normal" font-weight="400" font-size="12" x="0" y="87">data_4[N, M] +=!  data_3[N, K] * weight_2[K, M];</tspan><tspan fill="#FFFFFF" font-style="normal" font-weight="400" font-size="12" x="0" y="102">data_5[N, K] =   (data_4[N, K] + bias_2[K]);</tspan><tspan fill="#FFFFFF" font-style="normal" font-weight="400" font-size="12" x="0" y="116">…</tspan></text><path d="M692.374 280.356 700.047 288.03 712.134 275.943 727.482 291.29 715.395 303.377 723.069 311.051 695.634 307.791Z" fill="#4472C4" fill-rule="evenodd" fill-opacity="0.501961"/><path d="M650.949 118.244 648.816 110.285 621.514 117.601 617.249 101.683 644.551 94.3671 642.418 86.408 662.602 98.0609Z" fill="#4472C4" fill-rule="evenodd" fill-opacity="0.501961"/><path d="M868.447 309.78 876.121 302.106 864.034 290.019 879.382 274.671 891.469 286.758 899.142 279.085 895.882 306.519Z" fill="#4472C4" fill-rule="evenodd" fill-opacity="0.501961"/><path d="M16.8333 0 101 0C91.7032 2.0132e-14 84.1667 15.2223 84.1667 34 84.1667 52.7777 91.7032 68 101 68L16.8333 68C7.53654 68-1.86888e-15 52.7777-1.86888e-15 34-1.86888e-15 15.2223 7.53654 1.5099e-14 16.8333 5.03301e-15Z" stroke="#FFFFFF" stroke-width="2" stroke-miterlimit="8" fill-rule="evenodd" transform="matrix(-1 0 0 1 763 583)"/><text fill="#FFFFFF" font-family="Corbel,Corbel_MSFontService,sans-serif" font-style="italic" font-weight="400" font-size="13" transform="translate(699.49 613)">Mobile <tspan font-size="13" x="5.08002" y="16">GPU</tspan></text></g></svg>